<svg xmlns="http://www.w3.org/2000/svg" xmlns:xlink="http://www.w3.org/1999/xlink" viewBox="0 0 117.61 120.21"><defs><style>.cls-1{fill:url(#linear-gradient);}.cls-2{font-size:24.24px;font-family:Poppins-Bold, Poppins;font-weight:700;letter-spacing:0.14em;}.cls-2,.cls-4{fill:#383838;}.cls-3{fill:#277cf4;}.cls-4{font-size:8.92px;font-family:Poppins-Regular, Poppins;letter-spacing:0.38em;}</style><linearGradient id="linear-gradient" x1="21.29" y1="37.52" x2="96.33" y2="37.52" gradientUnits="userSpaceOnUse"><stop offset="0" stop-color="#33c2f9"/><stop offset="0.99" stop-color="#277cf4"/></linearGradient></defs><g id="Layer_2" data-name="Layer 2"><g id="OBJECTS"><path class="cls-1" d="M58.81,0A37.52,37.52,0,0,0,30.59,62.24c11.8,4,20.33,2.2,25.49-.13a6,6,0,0,1-.53-.34l-1.67-1.26C50.23,57.08,33,45.08,32.76,31.14s18-18.44,26.05-8.58c8-9.86,26.26-5.36,26.05,8.58S67.38,57.08,63.74,60.51l0,0c-1.43,1.29-10.49,8.78-26.15,6.34-.91-.15-1.85-.34-2.81-.55A37.52,37.52,0,1,0,58.81,0Zm4.66,12.48h-3v3H57.44v-3h-3V9.41h3v-3h3.07v3h3Z"/><text class="cls-2" transform="translate(0 101.98)">LIFE<tspan class="cls-3" x="58.65" y="0">PILL</tspan></text><text class="cls-4" transform="translate(4.94 115.11)">LOCATNG HOPE</text></g></g></svg>